<svg width="25" height="26" viewBox="0 0 25 26" fill="none" xmlns="http://www.w3.org/2000/svg">
<path d="M5.192 10.9257H7.26856C9.34513 10.9257 10.3834 9.84896 10.3834 7.69549V5.54201C10.3834 3.38854 9.34513 2.3118 7.26856 2.3118H5.192C3.11543 2.3118 2.07715 3.38854 2.07715 5.54201V7.69549C2.07715 9.84896 3.11543 10.9257 5.192 10.9257Z" stroke="#8E949A" stroke-width="1.5" stroke-miterlimit="10" stroke-linecap="round" stroke-linejoin="round"/>
<path d="M17.651 10.9257H19.7275C21.8041 10.9257 22.8424 9.84896 22.8424 7.69549V5.54201C22.8424 3.38854 21.8041 2.3118 19.7275 2.3118H17.651C15.5744 2.3118 14.5361 3.38854 14.5361 5.54201V7.69549C14.5361 9.84896 15.5744 10.9257 17.651 10.9257Z" stroke="#8E949A" stroke-width="1.5" stroke-miterlimit="10" stroke-linecap="round" stroke-linejoin="round"/>
<path d="M17.651 23.8466H19.7275C21.8041 23.8466 22.8424 22.7699 22.8424 20.6164V18.4629C22.8424 16.3095 21.8041 15.2327 19.7275 15.2327H17.651C15.5744 15.2327 14.5361 16.3095 14.5361 18.4629V20.6164C14.5361 22.7699 15.5744 23.8466 17.651 23.8466Z" stroke="#8E949A" stroke-width="1.5" stroke-miterlimit="10" stroke-linecap="round" stroke-linejoin="round"/>
<path d="M5.192 23.8466H7.26856C9.34513 23.8466 10.3834 22.7699 10.3834 20.6164V18.4629C10.3834 16.3095 9.34513 15.2327 7.26856 15.2327H5.192C3.11543 15.2327 2.07715 16.3095 2.07715 18.4629V20.6164C2.07715 22.7699 3.11543 23.8466 5.192 23.8466Z" stroke="#8E949A" stroke-width="1.5" stroke-miterlimit="10" stroke-linecap="round" stroke-linejoin="round"/>
</svg>
